{
	"asset":{
		"version":"2.0",
		"generator":"Created using the official Cinema 4D glTF Exporter 1.000x284978"
	},
	"scenes":[{
		"nodes":[0]
	}],
	"nodes":[{
		"name":"Extrude",
		"translation":[-0.03320350870490074,
		2.0106041431427,
		0.0752687156200409],
		"rotation":[0.0,
		-0.04351881146430969,
		0.0,
		0.9990525841712952],
		"scale":[1.0,
		1.0,
		1.0],
		"mesh":0
	}],
	"meshes":[{
		"name":"Extrude",
		"primitives":[{
			"attributes":{
				"POSITION":1,
				"NORMAL":2,
				"TEXCOORD_0":3
			},
			"indices":0
		}]
	}],
	"accessors":[{
		"bufferView":0,
		"type":"SCALAR",
		"componentType":5123,
		"count":576,
		"byteOffset":0,
		"min":[0],
		"max":[363]
	},
	{
		"bufferView":1,
		"type":"VEC3",
		"componentType":5126,
		"count":364,
		"byteOffset":0,
		"min":[-10.399613380432129,
		-10.399613380432129,
		-4.241421222686768],
		"max":[10.399613380432129,
		10.399613380432129,
		0.2414213865995407]
	},
	{
		"bufferView":1,
		"type":"VEC3",
		"componentType":5126,
		"count":364,
		"byteOffset":12,
		"min":[-1.0,
		-1.0,
		-1.0],
		"max":[1.0,
		1.0,
		1.0]
	},
	{
		"bufferView":1,
		"type":"VEC2",
		"componentType":5126,
		"count":364,
		"byteOffset":24,
		"min":[0.0,
		0.0],
		"max":[1.0,
		1.0]
	},
	{
		"bufferView":2,
		"type":"SCALAR",
		"componentType":5126,
		"count":49,
		"byteOffset":0,
		"min":[0.0],
		"max":[2.0]
	},
	{
		"bufferView":2,
		"type":"VEC3",
		"componentType":5126,
		"count":49,
		"byteOffset":196,
		"min":[-0.03320350870490074,
		-0.17761683464050294,
		0.0752687156200409],
		"max":[-0.03320350870490074,
		4.822382926940918,
		0.0752687156200409]
	},
	{
		"bufferView":3,
		"type":"SCALAR",
		"componentType":5126,
		"count":49,
		"byteOffset":0,
		"min":[0.0],
		"max":[2.0]
	},
	{
		"bufferView":3,
		"type":"VEC4",
		"componentType":5126,
		"count":49,
		"byteOffset":196,
		"min":[0.0,
		-0.3420201539993286,
		-7.074537400342251e-9,
		-1.0],
		"max":[2.3371080626333198e-9,
		-9.986854365706677e-7,
		0.0,
		1.0]
	}],
	"bufferViews":[{
		"buffer":0,
		"byteOffset":0,
		"target":34963,
		"byteLength":1152
	},
	{
		"buffer":0,
		"byteOffset":1152,
		"target":34962,
		"byteLength":11648,
		"byteStride":32
	},
	{
		"buffer":1,
		"byteOffset":0,
		"byteLength":784
	},
	{
		"buffer":1,
		"byteOffset":784,
		"byteLength":980
	}],
	"buffers":[{
		"byteLength":12800,
		"uri":"data:application/octet-stream;base64,"
	},
	{
		"byteLength":1764,
		"uri":"data:application/octet-stream;base64,"
	}],
	"animations":[{
		"samplers":[{
			"input":4,
			"interpolation":"LINEAR",
			"output":5
		},
		{
			"input":6,
			"interpolation":"LINEAR",
			"output":7
		}],
		"channels":[{
			"sampler":0,
			"target":{
				"node":0,
				"path":"translation"
			}
		},
		{
			"sampler":1,
			"target":{
				"node":0,
				"path":"rotation"
			}
		}]
	}]
}